<?xml version="1.0" standalone="no"?><svg xmlns="http://www.w3.org/2000/svg" viewBox="0 0 1440 320"><path fill="#e7008a" fill-opacity="1" d="M0,288L40,293.3C80,299,160,309,240,293.3C320,277,400,235,480,186.7C560,139,640,85,720,106.7C800,128,880,224,960,234.7C1040,245,1120,171,1200,170.7C1280,171,1360,245,1400,282.7L1440,320L1440,320L1400,320C1360,320,1280,320,1200,320C1120,320,1040,320,960,320C880,320,800,320,720,320C640,320,560,320,480,320C400,320,320,320,240,320C160,320,80,320,40,320L0,320Z"></path></svg>